<svg width="280" height="50" viewBox="0 0 280 50" fill="none" xmlns="http://www.w3.org/2000/svg">
  <!-- LS Shield Monogram -->
  <g id="monogram">
    <!-- Shield outline -->
    <path d="M15 8 L25 5 L35 8 L35 25 C35 32 30 38 25 42 C20 38 15 32 15 25 Z" fill="#D4AF37" stroke="#F5F5DC" stroke-width="1.5"/>
    
    <!-- L letter -->
    <path d="M19 15 L19 32 L26 32" stroke="#1a1a1a" stroke-width="2.5" stroke-linecap="round" stroke-linejoin="round" fill="none"/>
    
    <!-- S letter -->
    <path d="M31 18 C31 16 29 15 27 15 C25 15 23 16 23 18 C23 20 25 21 27 22 C29 23 31 24 31 26 C31 28 29 29 27 29 C25 29 23 28 23 26" stroke="#1a1a1a" stroke-width="2.5" stroke-linecap="round" fill="none"/>
  </g>
  
  <!-- LAKHVEER SINGH Text -->
  <text x="48" y="32" font-family="Georgia, serif" font-size="17" font-weight="600" fill="#F5F5DC" letter-spacing="2.5">
    LAKHVEER SINGH
  </text>
</svg>
